# xmcd
#
# Track frame offsets:
#	150
#	16302
#	33615
#	48925
#	63552
#	75392
#	90117
#	104357
#	126027
#	142150
#	156170
#	169615
#	181222
#	190367
#	208142
#	221547
#	235332
#	249047
#
# Disc length: 3517
#
# Revision: 4
# Processed by: cddbd v1.5.1PL0 Copyright (c) Steve Scherf et al.
# Submitted via: CDex 1.51
# Normalized: r3:TDELIM( - ),TSWAP
#
DISCID=ee0dbb12
DTITLE=The Singers - I Love Country
DYEAR=1989
DGENRE=Country
TTITLE0=The O'Kanes - Tired Of The Runnin'
TTITLE1=T.G. Sheppard - Walk Of life
TTITLE2=Ricky van Shelton - Crime Of Passion
TTITLE3=John Conlee - The Carpenter
TTITLE4=Mickey Gilley - Full Grown Fool
TTITLE5=George Jones - The Right Left Hand
TTITLE6=Mark Gray - Please Be Love
TTITLE7=Willie Nelson - City Of New Orleans
TTITLE8=Ricky Skaggs - Love's Gonna Get You Someday
TTITLE9=Ronnie McDowell - Wandering Eyes
TTITLE10=Moe Bandy - Motel Matches
TTITLE11=Johnny Cash - Big River
TTITLE12=Frankie Laine - Rawhide
TTITLE13=Marty Robbins - Big Iron
TTITLE14=David Allan Coe - Jody Like A Melody
TTITLE15=Gene Watson - Rollin' Home
TTITLE16=Darden Smith - Little Maggie
TTITLE17=Rodney Crowell - I Couldn't Leave You If I Tried
EXTD=YEAR: 1989
EXTT0=The O'Kanes
EXTT1=T.G. Sheppard
EXTT2=Richy Van Shelton
EXTT3=John Conlee
EXTT4=Mickey Gilley
EXTT5=George Jones
EXTT6=Mark Gray
EXTT7=Willie Nelson
EXTT8=Ricky Skaggs
EXTT9=Ronnie McDowell
EXTT10=Moe Bandy
EXTT11=Johnny Cash
EXTT12=Frankie Laine
EXTT13=Marty Robbins
EXTT14=David Allan Coe
EXTT15=Gene Watson
EXTT16=Darden Smith
EXTT17=Rodney Crowell
PLAYORDER=
